# xmcd
#
# Track frame offsets: 
#        150
#        16267
#        42297
#        57020
#        72511
#        89140
#        102898
#        116601
#        133035
#        148519
#        164546
#
# Disc length: 2365 seconds
#
# Revision: 0
# Processed by: cddbd v1.5.2PL0 Copyright (c) Steve Scherf et al.
# Submitted via: ExactAudioCopy v0.99pb4
#
DISCID=9b093b0b
DTITLE=The Lost Generation - The Young, Tough and Terrible
DYEAR=1972
DGENRE=Soul
TTITLE0=This Is the Lost Generation 
TTITLE1=Tired of Being Alone 
TTITLE2=All in the Course of a Day 
TTITLE3=You've Got to Crawl (Before You Walk) 
TTITLE4=Sure Is Funky 
TTITLE5=The Young, Tough and the Terrible 
TTITLE6=Paulette 
TTITLE7=Thin Line Between Love and Hate 
TTITLE8=One More Bridge to Cross 
TTITLE9=This Is the Lost Generation (instrumental)
TTITLE10=Talking the Teenage Language (bonus track) 
EXTD=
EXTT0=
EXTT1=
EXTT2=
EXTT3=
EXTT4=
EXTT5=
EXTT6=
EXTT7=
EXTT8=
EXTT9=
EXTT10=
PLAYORDER=
